<svg width="40" height="40" viewBox="0 0 40 40" fill="none" xmlns="http://www.w3.org/2000/svg">
<path fill-rule="evenodd" clip-rule="evenodd" d="M30.5254 20C35.786 19.7184 39.9706 15.349 39.9706 10.0072V0H29.9851C24.6557 0 20.2964 4.19218 20.014 9.46305C19.7301 4.2081 15.3586 0.0288086 10.0143 0.0288086H0V10.0072C0 15.5005 4.46339 19.9623 9.9709 19.9856C4.46621 19.9937 0.00035994 24.4743 0.000359457 29.9928L0.000358582 40H9.9859C15.4925 40 19.9633 35.5244 19.9714 30.0078C19.995 35.4953 24.4728 39.9425 29.9857 39.9425H40V29.9641C40 24.6368 35.8022 20.2797 30.5254 20ZM19.9713 29.949C19.9792 24.6288 24.1737 20.2798 29.4454 20C24.3642 19.7283 20.2868 15.6431 20.014 10.5514C19.7304 15.8015 15.3667 19.9779 10.0292 19.9857C15.5064 20.009 19.9478 24.4601 19.9713 29.949Z" fill="#57D9A6"/>
</svg>
