<svg width="77" height="26" viewBox="0 0 77 26" fill="none" xmlns="http://www.w3.org/2000/svg">
<path d="M8.38401 25.408C6.93331 25.408 5.48271 25.1473 4.03201 24.626C2.60401 24.082 1.3233 23.2773 0.190002 22.212L3.04601 18.778C3.83931 19.458 4.71201 20.0133 5.66401 20.444C6.63871 20.8747 7.5907 21.09 8.52 21.09C9.5627 21.09 10.3333 20.8973 10.832 20.512C11.3533 20.1267 11.614 19.6053 11.614 18.948C11.614 18.608 11.5347 18.3133 11.376 18.064C11.24 17.8147 11.0247 17.5993 10.73 17.418C10.458 17.214 10.118 17.0327 9.71 16.874C9.3247 16.6927 8.894 16.5 8.418 16.296L5.528 15.072C4.9613 14.8453 4.406 14.5507 3.862 14.188C3.3407 13.8253 2.8647 13.406 2.434 12.93C2.026 12.4313 1.69731 11.8647 1.44801 11.23C1.19871 10.5727 1.07401 9.836 1.07401 9.02C1.07401 8.1133 1.2667 7.2633 1.652 6.47C2.0373 5.654 2.5813 4.9513 3.284 4.362C3.9867 3.75 4.814 3.274 5.766 2.934C6.7407 2.594 7.806 2.424 8.962 2.424C10.254 2.424 11.5233 2.6733 12.77 3.172C14.0393 3.6707 15.15 4.396 16.102 5.348L13.552 8.51C12.8267 7.9433 12.1013 7.5127 11.376 7.218C10.6507 6.9007 9.846 6.742 8.962 6.742C8.1007 6.742 7.4093 6.9233 6.888 7.286C6.3893 7.626 6.14 8.1133 6.14 8.748C6.14 9.088 6.2193 9.3827 6.378 9.632C6.5593 9.8587 6.79731 10.074 7.09201 10.278C7.40931 10.4593 7.772 10.6407 8.18 10.822C8.588 10.9807 9.03 11.162 9.506 11.366L12.362 12.522C13.722 13.066 14.7873 13.814 15.558 14.766C16.3513 15.718 16.748 16.976 16.748 18.54C16.748 19.4693 16.5553 20.3533 16.17 21.192C15.8073 22.008 15.2633 22.7333 14.538 23.368C13.8353 23.98 12.9627 24.4787 11.92 24.864C10.8773 25.2267 9.69871 25.408 8.38401 25.408ZM19.4226 25V1.166H24.2846V14.834H24.4206L29.7586 8.136H35.1986L29.2826 15.072L35.6406 25H30.2346L26.4266 18.438L24.2846 20.852V25H19.4226ZM37.3695 25V8.136H42.3675V25H37.3695ZM39.8515 5.654C39.0129 5.654 38.3215 5.416 37.7775 4.94C37.2335 4.4413 36.9615 3.8067 36.9615 3.036C36.9615 2.2653 37.2335 1.642 37.7775 1.166C38.3215 0.689997 39.0129 0.451996 39.8515 0.451996C40.7129 0.451996 41.4042 0.689997 41.9255 1.166C42.4695 1.642 42.7415 2.2653 42.7415 3.036C42.7415 3.8067 42.4695 4.4413 41.9255 4.94C41.4042 5.416 40.7129 5.654 39.8515 5.654ZM50.676 25.408C49.815 25.408 49.089 25.272 48.5 25C47.911 24.728 47.435 24.354 47.072 23.878C46.732 23.3793 46.483 22.79 46.324 22.11C46.165 21.4073 46.086 20.6253 46.086 19.764V1.166H51.084V19.968C51.084 20.4893 51.175 20.852 51.356 21.056C51.56 21.26 51.764 21.362 51.968 21.362C52.081 21.362 52.172 21.362 52.24 21.362C52.331 21.362 52.444 21.3393 52.58 21.294L53.192 25C52.92 25.1133 52.569 25.204 52.138 25.272C51.73 25.3627 51.243 25.408 50.676 25.408ZM59.725 25.408C58.863 25.408 58.138 25.272 57.549 25C56.959 24.728 56.483 24.354 56.121 23.878C55.781 23.3793 55.531 22.79 55.373 22.11C55.214 21.4073 55.135 20.6253 55.135 19.764V1.166H60.133V19.968C60.133 20.4893 60.223 20.852 60.405 21.056C60.609 21.26 60.813 21.362 61.017 21.362C61.13 21.362 61.221 21.362 61.289 21.362C61.379 21.362 61.493 21.3393 61.629 21.294L62.241 25C61.969 25.1133 61.617 25.204 61.187 25.272C60.779 25.3627 60.291 25.408 59.725 25.408ZM63.265 25V22.314L70.337 12.046H64.047V8.136H76.559V10.788L69.487 21.09H76.797V25H63.265Z" fill="white"/>
</svg>
